<?xml version="1.0" encoding="UTF-8" standalone="no"?>
<!-- Created with Inkscape (http://www.inkscape.org/) -->

<svg
   width="32"
   height="32"
   viewBox="0 0 32 32"
   version="1.1"
   id="svg1"
   xml:space="preserve"
   inkscape:version="1.4.3 (0d15f75, 2025-12-25)"
   sodipodi:docname="IconoCalculadora.svg"
   xmlns:inkscape="http://www.inkscape.org/namespaces/inkscape"
   xmlns:sodipodi="http://sodipodi.sourceforge.net/DTD/sodipodi-0.dtd"
   xmlns="http://www.w3.org/2000/svg"
   xmlns:svg="http://www.w3.org/2000/svg"><sodipodi:namedview
     id="namedview1"
     pagecolor="#505050"
     bordercolor="#eeeeee"
     borderopacity="1"
     inkscape:showpageshadow="0"
     inkscape:pageopacity="0"
     inkscape:pagecheckerboard="0"
     inkscape:deskcolor="#505050"
     inkscape:document-units="px"
     inkscape:zoom="11.313709"
     inkscape:cx="-2.298097"
     inkscape:cy="20.682873"
     inkscape:window-width="1920"
     inkscape:window-height="1053"
     inkscape:window-x="-9"
     inkscape:window-y="-9"
     inkscape:window-maximized="1"
     inkscape:current-layer="layer1" /><defs
     id="defs1" /><g
     inkscape:label="Capa 1"
     inkscape:groupmode="layer"
     id="layer1"><g
       id="g3"
       transform="matrix(0.96645866,0,0,0.96645866,-0.0821034,0.29610101)"><path
         id="rect1"
         style="fill:#6c8794;fill-rule:evenodd;stroke-width:1.02793;stroke-linejoin:bevel;stroke-miterlimit:53.5;stroke-dashoffset:723;paint-order:stroke fill markers"
         d="M 6.8735795,4.3433876 H 26.091617 c 1.124084,0 2.029032,0.9049484 2.029032,2.0290322 V 25.664703 c 0,1.124084 -0.904948,2.029032 -2.029032,2.029032 H 6.8735795 c -1.1240839,0 -2.0290322,-0.904948 -2.0290322,-2.029032 V 6.3724198 c 0,-1.1240838 0.9049483,-2.0290322 2.0290322,-2.0290322 z" /><path
         id="rect2"
         style="fill:#849aa5;fill-rule:evenodd;stroke-linejoin:bevel;stroke-miterlimit:53.5;stroke-dashoffset:723;paint-order:stroke fill markers"
         d="m 6.8259859,4.3433876 c 2.8237573,0.00503 6.2235881,0.00387 9.7678231,-0.00187 -0.0342,3.4791956 0.0068,5.0959737 -0.01782,11.6304784 -5.894172,-0.0036 -6.175552,-0.05553 -11.7264526,-0.01684 -0.00393,-3.753489 -0.02355,-6.7408181 -0.02355,-9.6117649 0,-1.108 0.8920018,-2.001973 2,-2 z"
         sodipodi:nodetypes="scccsss" /><path
         id="rect2-5"
         style="fill:#4e626b;fill-opacity:1;fill-rule:evenodd;stroke-width:1.25769;stroke-linejoin:bevel;stroke-miterlimit:53.5;stroke-dashoffset:723;paint-order:stroke fill markers"
         d="m 25.012891,4.3383556 c -2.913051,-0.01708 -4.942597,0.018766 -8.43359,0.00954 0.03369,5.5871987 -0.0067,8.2337474 0.01755,18.7274314 5.80563,-0.0058 6.082783,-0.08918 11.550298,-0.02704 0.0038,-6.027683 0.02694,-12.08458 0.0066,-16.6949552 -0.0055,-1.2545182 -1.018718,-2.0025307 -2.070572,-2.0086993 z"
         sodipodi:nodetypes="scccsss" /><path
         id="path2"
         style="fill:#26eab9;fill-rule:evenodd;stroke-width:1.09785;stroke-linejoin:bevel;stroke-miterlimit:53.5;stroke-dashoffset:723;paint-order:stroke fill markers"
         d="m 30.069357,21.787729 a 7.6850095,7.6850095 0 0 1 -7.685009,7.68501 7.6850095,7.6850095 0 0 1 -7.68501,-7.68501 7.6850095,7.6850095 0 0 1 7.68501,-7.685009 7.6850095,7.6850095 0 0 1 7.685009,7.685009 z" /><path
         id="rect3-14-7"
         style="fill:#ffffff;fill-rule:evenodd;stroke-width:0.865691;stroke-linejoin:bevel;stroke-miterlimit:53.5;stroke-dashoffset:723;paint-order:stroke fill markers"
         transform="rotate(44.76152)"
         d="m 20.746588,-9.0611534 h 4.779443 v 1.0005157 h -4.779443 z" /><path
         id="rect3-14-7-1"
         style="fill:#ffffff;fill-rule:evenodd;stroke-width:0.865691;stroke-linejoin:bevel;stroke-miterlimit:53.5;stroke-dashoffset:723;paint-order:stroke fill markers"
         transform="matrix(-0.71004381,0.7041575,0.7041575,0.71004381,0,0)"
         d="m -11.138778,22.46895 h 4.7794435 v 1.000516 h -4.7794435 z" /><path
         id="rect3-14-6"
         style="fill:#ffffff;fill-rule:evenodd;stroke-width:0.933088;stroke-linejoin:bevel;stroke-miterlimit:53.5;stroke-dashoffset:723;paint-order:stroke fill markers"
         d="M 8.0883884,9.4254761 H 13.088802 V 10.536477 H 8.0883884 Z" /><path
         id="rect3"
         style="fill:#ffffff;fill-rule:evenodd;stroke-width:0.863169;stroke-linejoin:bevel;stroke-miterlimit:53.5;stroke-dashoffset:723;paint-order:stroke fill markers"
         d="m 19.869858,20.356318 h 5.088802 v 0.934224 h -5.088802 z" /><path
         id="rect3-1"
         style="fill:#ffffff;fill-rule:evenodd;stroke-width:0.863169;stroke-linejoin:bevel;stroke-miterlimit:53.5;stroke-dashoffset:723;paint-order:stroke fill markers"
         d="m 19.873049,22.347921 h 5.088802 v 0.934225 h -5.088802 z" /><path
         id="rect3-14"
         style="fill:#ffffff;fill-rule:evenodd;stroke-width:0.865691;stroke-linejoin:bevel;stroke-miterlimit:53.5;stroke-dashoffset:723;paint-order:stroke fill markers"
         d="M 8.1161165,21.4753 H 12.89556 v 1.000516 H 8.1161165 Z" /><path
         id="rect3-14-1"
         style="fill:#ffffff;fill-rule:evenodd;stroke-width:0.871674;stroke-linejoin:bevel;stroke-miterlimit:53.5;stroke-dashoffset:723;paint-order:stroke fill markers"
         transform="rotate(-90)"
         d="m -24.453457,10.027677 h 4.845735 v 1.000515 h -4.845735 z" /></g></g></svg>
